<?xml version="1.0" standalone="no"?>
<!DOCTYPE svg PUBLIC "-//W3C//DTD SVG 20010904//EN"
 "http://www.w3.org/TR/2001/REC-SVG-20010904/DTD/svg10.dtd">
<svg version="1.0" xmlns="http://www.w3.org/2000/svg"
 width="192.000000pt" height="192.000000pt" viewBox="0 0 192.000000 192.000000"
 preserveAspectRatio="xMidYMid meet">
<metadata>
Created by potrace 1.11, written by Peter Selinger 2001-2013
</metadata>
<g transform="translate(0.000000,192.000000) scale(0.100000,-0.100000)"
fill="#000000" stroke="none">
<path d="M80 960 l0 -850 880 0 880 0 0 850 0 850 -880 0 -880 0 0 -850z m686
511 c71 -12 116 -28 126 -44 11 -17 10 -75 -2 -82 -5 -3 -40 5 -77 17 -146 48
-302 22 -401 -67 -78 -70 -97 -124 -97 -270 0 -105 3 -126 23 -166 35 -71 85
-123 149 -155 53 -27 67 -29 168 -29 155 0 153 -1 157 135 2 61 2 115 0 120
-2 6 -39 10 -82 10 -44 0 -91 5 -105 12 -30 14 -34 53 -6 68 11 5 83 10 160
10 l141 0 0 -196 0 -195 -37 -16 c-70 -29 -108 -36 -240 -42 -102 -5 -134 -3
-138 7 -2 6 -13 12 -24 12 -33 0 -124 53 -169 98 -159 158 -156 489 7 652 59
59 152 106 236 120 32 5 60 12 64 16 6 6 47 2 147 -15z m313 -449 c11 -37 36
-128 56 -202 19 -74 38 -142 41 -150 4 -8 19 30 34 85 16 55 38 134 49 175 12
41 28 94 37 118 16 42 17 43 57 40 39 -3 42 -5 54 -48 16 -52 70 -256 85 -315
5 -22 12 -47 15 -55 3 -8 31 76 62 187 32 111 63 208 70 217 17 20 71 18 71
-3 0 -33 -142 -477 -157 -492 -6 -6 -29 -9 -53 -7 l-43 3 -40 150 c-22 83 -46
175 -55 205 l-15 55 -25 -80 c-13 -44 -42 -137 -63 -207 l-40 -128 -49 0 -49
0 -17 58 c-9 31 -28 100 -44 152 -60 202 -81 283 -76 295 2 7 21 13 40 13 35
0 36 -1 55 -66z"/>
</g>
</svg>
