<?xml version="1.0" encoding="UTF-8"?>
<svg width="90px" height="12px" viewBox="0 0 90 12" version="1.1" xmlns="http://www.w3.org/2000/svg" xmlns:xlink="http://www.w3.org/1999/xlink">
    <!-- Generator: sketchtool 48.2 (47327) - http://www.bohemiancoding.com/sketch -->
    <title>173B59E8-9473-4432-8AE9-DCF915971AC2</title>
    <desc>Created with sketchtool.</desc>
    <defs></defs>
    <g id="UI--elements" stroke="none" stroke-width="1" fill="none" fill-rule="evenodd" transform="translate(-1328.000000, -246.000000)">
        <path d="M1328.144,248.368 L1328.144,246.384 L1336.752,246.384 L1336.752,247.376 L1330.944,255.584 L1336.752,255.584 L1336.752,257.584 L1328,257.584 L1328,256.368 L1333.68,248.368 L1328.144,248.368 Z M1338.808,253.264 L1338.808,251.472 L1344.712,251.472 L1344.712,253.264 L1338.808,253.264 Z M1355.952,248.224 L1354.272,249.088 C1353.888,248.448 1352.832,247.84 1351.616,247.84 C1350.048,247.84 1349.296,248.496 1349.296,249.328 C1349.296,250.304 1350.448,250.576 1351.792,250.736 C1354.128,251.024 1356.304,251.632 1356.304,254.304 C1356.304,256.8 1354.096,257.872 1351.6,257.872 C1349.312,257.872 1347.552,257.168 1346.72,255.12 L1348.48,254.208 C1348.976,255.44 1350.272,255.984 1351.632,255.984 C1352.96,255.984 1354.208,255.52 1354.208,254.304 C1354.208,253.248 1353.104,252.816 1351.616,252.656 C1349.328,252.384 1347.216,251.776 1347.216,249.264 C1347.216,246.96 1349.488,246.016 1351.552,246 C1353.296,246 1355.104,246.496 1355.952,248.224 Z M1361.832,257.584 L1361.832,248.304 L1358.28,248.304 L1358.28,246.384 L1367.496,246.384 L1367.496,248.304 L1363.944,248.304 L1363.944,257.584 L1361.832,257.584 Z M1379.712,257.44 L1379.712,257.584 L1377.2,257.584 L1373.936,253.84 L1371.904,253.84 L1371.904,257.584 L1369.792,257.584 L1369.792,246.368 C1371.568,246.368 1373.344,246.384 1375.12,246.384 C1377.76,246.4 1379.152,248.16 1379.152,250.096 C1379.152,251.632 1378.448,253.184 1376.32,253.616 L1379.712,257.44 Z M1375.12,248.352 L1371.904,248.352 L1371.904,251.936 L1375.12,251.936 C1376.464,251.936 1377.04,251.04 1377.04,250.144 C1377.04,249.248 1376.448,248.352 1375.12,248.352 Z M1389.928,255.504 L1389.928,257.584 L1381.544,257.584 L1381.544,246.384 L1389.928,246.384 L1389.928,248.432 L1383.64,248.432 L1383.64,251.008 L1389.704,251.008 L1389.704,252.976 L1383.64,252.976 L1383.64,255.504 L1389.928,255.504 Z M1401.456,257.584 L1400.512,255.472 L1394.656,255.472 L1393.696,257.584 L1391.408,257.584 L1396.432,246.384 L1398.736,246.384 L1403.76,257.584 L1401.456,257.584 Z M1399.664,253.504 L1397.584,248.736 L1395.504,253.504 L1399.664,253.504 Z M1415.304,257.6 L1415.304,249.472 L1411.656,254.336 L1411.24,254.336 L1407.672,249.456 L1407.672,257.6 L1405.56,257.6 L1405.56,246.4 L1407.992,246.4 L1411.496,251.216 L1415,246.4 L1417.416,246.4 L1417.416,257.6 L1415.304,257.6 Z" id="Z-stream-black" fill="#444444"></path>
    </g>
</svg>